<svg width="27" height="26" viewBox="0 0 27 26" fill="none" xmlns="http://www.w3.org/2000/svg">
<path d="M14.2772 1.34981C14.1312 1.05399 13.8299 0.866699 13.5 0.866699C13.1701 0.866699 12.8688 1.05399 12.7229 1.34981L9.17492 8.5388L1.24214 9.69077C0.915664 9.73818 0.644415 9.96684 0.542455 10.2806C0.440495 10.5943 0.525508 10.9388 0.761747 11.169L6.50213 16.7646L5.14665 24.6664C5.09087 24.9916 5.22453 25.3202 5.49141 25.514C5.75831 25.708 6.11215 25.7336 6.40415 25.58L13.5 21.8494L20.5959 25.58C20.888 25.7336 21.2418 25.708 21.5087 25.514C21.7755 25.3202 21.9093 24.9916 21.8535 24.6664L20.498 16.7646L26.2383 11.169C26.4745 10.9388 26.5596 10.5943 26.4575 10.2806C26.3556 9.96684 26.0843 9.73818 25.758 9.69077L17.8251 8.5388L14.2772 1.34981Z" fill="#F3E564"/>
</svg>
